<?xml version="1.0" encoding="iso-8859-1"?>
<!-- Generator: Adobe Illustrator 19.0.0, SVG Export Plug-In . SVG Version: 6.00 Build 0)  -->
<svg version="1.1" id="Capa_1" xmlns="http://www.w3.org/2000/svg" xmlns:xlink="http://www.w3.org/1999/xlink" x="0px" y="0px"
	 viewBox="0 0 512 512" style="enable-background:new 0 0 512 512;" xml:space="preserve">
<circle style="fill:#FFDC00;" cx="256" cy="256" r="256"/>
<path style="fill:#FFC000;" d="M81.759,332.49l179.648,179.442c134.123-2.781,242.886-108.702,250.191-241.667l-73.434-73.592
	L81.759,332.49z"/>
<path style="fill:#4D4D4D;" d="M211.916,112.371h-23.384c-6.724,0-13.312,2.322-18.551,6.54L75.52,194.958l7.525,9.347l0,0h0.001
	l7.525,9.347l11.126-8.957l115.802,2.42v0.251h24v-65.413C241.498,125.642,228.227,112.371,211.916,112.371z"/>
<path style="fill:#333333;" d="M428.956,204.305l7.525-9.347l-94.462-76.047c-5.238-4.217-11.826-6.54-18.551-6.54h-23.384
	c-16.312,0-29.582,13.271-29.582,29.583v65.413h24v-0.251l115.802-2.42l11.126,8.957L428.956,204.305L428.956,204.305
	L428.956,204.305z"/>
<circle style="fill:#35CCFF;" cx="150" cy="260.37" r="87.33"/>
<circle style="fill:#00BAFF;" cx="362" cy="260.37" r="87.33"/>
<g>
	<circle style="fill:#333333;" cx="256" cy="207.37" r="18.635"/>
	<path style="fill:#333333;" d="M256,238.001c-16.892-0.001-30.635-13.744-30.635-30.635c0-16.892,13.743-30.635,30.635-30.635
		c16.893,0.001,30.635,13.744,30.635,30.635C286.635,224.259,272.892,238.001,256,238.001z M256,200.731
		c-3.658,0-6.634,2.977-6.634,6.635c0,3.659,2.977,6.635,6.635,6.635c3.658,0,6.634-2.977,6.634-6.635
		C262.635,203.708,259.658,200.731,256,200.731z"/>
	<path style="fill:#333333;" d="M362,161.038c-30.112,0-57.134,13.47-75.365,34.699v-31.138c0-16.892-13.743-30.635-30.634-30.635
		H256c-8.182,0-15.875,3.187-21.661,8.972c-5.784,5.785-8.971,13.475-8.973,21.655l-0.019,31.123
		c-18.232-21.215-45.245-34.676-75.346-34.676c-54.772,0-99.333,44.561-99.333,99.333s44.56,99.334,99.332,99.334
		c42.053,0,78.083-26.27,92.551-63.259c4.189,1.567,8.72,2.429,13.449,2.429s9.26-0.862,13.449-2.429
		c14.468,36.99,50.498,63.259,92.551,63.259c54.772,0,99.333-44.561,99.333-99.333S416.772,161.038,362,161.038z M150,335.705
		c-41.539,0-75.333-33.794-75.333-75.333s33.794-75.333,75.333-75.333c34.825,0,64.195,23.758,72.783,55.914
		c-3.352,5.705-5.285,12.337-5.285,19.419c0,7.084,1.931,13.722,5.282,19.429C214.188,311.951,184.822,335.705,150,335.705z
		 M362,335.705c-34.822,0-64.188-23.753-72.78-55.904c3.351-5.708,5.282-12.345,5.282-19.429c0-7.082-1.934-13.715-5.285-19.419
		c8.588-32.156,37.957-55.914,72.782-55.914c41.539,0,75.333,33.794,75.333,75.333C437.333,301.91,403.539,335.705,362,335.705z"/>
</g>
<path style="fill:#1A1A1A;" d="M362,161.038c-30.112,0-57.134,13.47-75.365,34.699v-31.138c0-16.892-13.743-30.635-30.634-30.635
	H256c-0.087,0-0.174,0.006-0.261,0.006v164.898c0.088,0,0.174,0.006,0.262,0.006c4.729,0,9.26-0.862,13.449-2.429
	c14.468,36.99,50.498,63.259,92.551,63.259c54.772,0,99.333-44.561,99.333-99.333S416.772,161.038,362,161.038z M362,335.705
	c-34.822,0-64.188-23.753-72.78-55.904c3.351-5.708,5.282-12.345,5.282-19.429c0-7.082-1.934-13.715-5.285-19.419
	c8.588-32.156,37.957-55.914,72.782-55.914c41.539,0,75.333,33.794,75.333,75.333C437.333,301.91,403.539,335.705,362,335.705z"/>
<g>
	<circle style="fill:#FFFFFF;" cx="124.22" cy="234.59" r="16.968"/>
	<circle style="fill:#FFFFFF;" cx="175.78" cy="286.15" r="16.968"/>
	
		<rect x="142.586" y="207.331" transform="matrix(-0.7071 -0.7071 0.7071 -0.7071 71.957 550.5472)" style="fill:#FFFFFF;" width="14.829" height="106.079"/>
</g>
<g>
	<circle style="fill:#E0E0E0;" cx="336.22" cy="234.59" r="16.968"/>
	<circle style="fill:#E0E0E0;" cx="387.78" cy="286.15" r="16.968"/>
	
		<rect x="354.591" y="207.331" transform="matrix(-0.7071 -0.7071 0.7071 -0.7071 433.8724 700.4578)" style="fill:#E0E0E0;" width="14.829" height="106.079"/>
</g>
<g>
</g>
<g>
</g>
<g>
</g>
<g>
</g>
<g>
</g>
<g>
</g>
<g>
</g>
<g>
</g>
<g>
</g>
<g>
</g>
<g>
</g>
<g>
</g>
<g>
</g>
<g>
</g>
<g>
</g>
</svg>
