<?xml version="1.0" encoding="iso-8859-1"?>
<!-- Generator: Adobe Illustrator 19.0.0, SVG Export Plug-In . SVG Version: 6.00 Build 0)  -->
<svg version="1.1" id="Capa_1" xmlns="http://www.w3.org/2000/svg" xmlns:xlink="http://www.w3.org/1999/xlink" x="0px" y="0px"
	 viewBox="0 0 512 512" style="enable-background:new 0 0 512 512;" xml:space="preserve">
<g>
	<g>
		<path d="M260.75,200.866c-30.403,0-55.136,24.734-55.136,55.136c0,30.403,24.734,55.136,55.136,55.136
			s55.136-24.734,55.136-55.136C315.887,225.599,291.152,200.866,260.75,200.866z M243.968,292.246
			c-13.667-6.354-23.171-20.206-23.171-36.245c0-16.039,9.506-29.892,23.174-36.246c13.943,6.492,23.124,20.704,23.124,36.245
			C267.095,271.542,257.914,285.754,243.968,292.246z M265.361,295.68c10.551-10.217,16.917-24.485,16.917-39.679
			c0-15.192-6.365-29.459-16.914-39.676c19.863,2.296,35.339,19.21,35.339,39.677C300.703,276.47,285.227,293.384,265.361,295.68z"
			/>
	</g>
</g>
<g>
	<g>
		<path d="M423.188,200.866c-30.402,0-55.136,24.734-55.136,55.136c0,30.403,24.734,55.136,55.136,55.136
			c30.403,0,55.136-24.734,55.136-55.136C478.325,225.599,453.591,200.866,423.188,200.866z M427.796,295.68
			c10.551-10.217,16.918-24.485,16.918-39.68c0-4.193-3.399-7.592-7.591-7.592c-4.193,0-7.592,3.399-7.592,7.592
			c0,15.542-9.182,29.754-23.125,36.245c-13.666-6.354-23.169-20.206-23.169-36.244c0-16.036,9.502-29.887,23.166-36.242
			c7.311,3.403,13.504,8.995,17.628,15.995c1.415,2.403,3.948,3.739,6.548,3.739c1.31,0,2.637-0.339,3.846-1.052
			c3.613-2.129,4.816-6.782,2.687-10.394c-2.552-4.33-5.686-8.265-9.269-11.719c19.844,2.314,35.299,19.218,35.299,39.672
			C463.142,276.472,447.662,293.387,427.796,295.68z"/>
	</g>
</g>
<g>
	<g>
		<path d="M423.188,167.191l-0.001-0.004l-277.775,0.004c-25.996,0-49.42,11.227-65.676,29.089H59.711
			C26.786,196.278,0,223.069,0,255.999c0,32.931,26.786,59.721,59.711,59.721h20.024c16.256,17.861,39.68,29.091,65.677,29.091
			h14.768c4.193,0,7.592-3.399,7.592-7.592c0-4.193-3.399-7.591-7.592-7.591h-14.768c-40.598,0-73.628-33.029-73.628-73.628
			c0-40.598,33.029-73.628,73.628-73.628h65.724c-23.632,15.976-39.199,43.018-39.199,73.628c0,30.61,15.566,57.653,39.199,73.628
			h-25.65c-4.193,0-7.591,3.399-7.591,7.591c0,4.193,3.399,7.592,7.591,7.592l237.702,0.002v-0.002h0.001
			c48.97,0,88.811-39.84,88.811-88.811S472.159,167.191,423.188,167.191z M68.602,300.537h-8.891v0.001
			c-24.553,0-44.528-19.98-44.528-44.539c0-24.558,19.975-44.538,44.528-44.538h8.892C60.977,224.562,56.602,239.78,56.602,256
			C56.602,272.22,60.977,287.438,68.602,300.537z M373.581,182.371c-13.773,9.309-24.801,22.38-31.611,37.723
			c-6.809-15.342-17.837-28.412-31.609-37.721L373.581,182.371z M187.122,256c0-40.598,33.029-73.628,73.628-73.628
			s73.628,33.029,73.628,73.628c0,40.599-33.029,73.628-73.628,73.628S187.122,296.599,187.122,256z M310.362,329.629
			c13.771-9.309,24.798-22.379,31.607-37.72c6.809,15.342,17.837,28.412,31.608,37.721L310.362,329.629z M423.188,329.629
			c-40.599,0-73.628-33.029-73.628-73.628s33.029-73.628,73.628-73.628s73.628,33.029,73.628,73.628
			S463.787,329.629,423.188,329.629z"/>
	</g>
</g>
<g>
</g>
<g>
</g>
<g>
</g>
<g>
</g>
<g>
</g>
<g>
</g>
<g>
</g>
<g>
</g>
<g>
</g>
<g>
</g>
<g>
</g>
<g>
</g>
<g>
</g>
<g>
</g>
<g>
</g>
</svg>
